<svg xmlns="http://www.w3.org/2000/svg" width="43.604" height="41.608" viewBox="0 0 43.604 41.608">
  <defs>
    <style>
      .cls-1 {
        stroke: #000;
      }
    </style>
  </defs>
  <path id="dark_mode_FILL1_wght400_GRAD0_opsz48" class="cls-1" d="M141.3,256.608a21.066,21.066,0,0,1-15.089-5.922,19.752,19.752,0,0,1,0-28.764A21.066,21.066,0,0,1,141.3,216q.473,0,1.006.028t1.361.085a12.348,12.348,0,0,0-3.314,4.456,13.545,13.545,0,0,0-1.183,5.584,11.476,11.476,0,0,0,3.728,8.629,12.639,12.639,0,0,0,9.053,3.553,16.539,16.539,0,0,0,5.858-1.043,13.157,13.157,0,0,0,4.675-2.9q.059.677.089,1.1t.03.818a19.127,19.127,0,0,1-6.213,14.382A21.065,21.065,0,0,1,141.3,256.608Z" transform="translate(-119.5 -215.5)"/>
</svg>
