<svg xmlns="http://www.w3.org/2000/svg" width="44.4" height="44.4" viewBox="0 0 44.4 44.4">
  <path id="light_mode_FILL1_wght500_GRAD0_opsz48" d="M24,34A9.987,9.987,0,0,1,14,24,9.987,9.987,0,0,1,24,14,9.987,9.987,0,0,1,34,24,9.987,9.987,0,0,1,24,34ZM3.5,25.7a1.637,1.637,0,0,1-1.2-.5A1.637,1.637,0,0,1,1.8,24a1.614,1.614,0,0,1,.5-1.225A1.681,1.681,0,0,1,3.5,22.3h5A1.707,1.707,0,0,1,10.2,24a1.614,1.614,0,0,1-.5,1.225,1.681,1.681,0,0,1-1.2.475Zm36,0A1.707,1.707,0,0,1,37.8,24a1.614,1.614,0,0,1,.5-1.225,1.681,1.681,0,0,1,1.2-.475h5A1.707,1.707,0,0,1,46.2,24a1.614,1.614,0,0,1-.5,1.225,1.681,1.681,0,0,1-1.2.475ZM24,10.2a1.614,1.614,0,0,1-1.225-.5A1.681,1.681,0,0,1,22.3,8.5v-5a1.637,1.637,0,0,1,.5-1.2A1.637,1.637,0,0,1,24,1.8a1.614,1.614,0,0,1,1.225.5A1.681,1.681,0,0,1,25.7,3.5v5A1.707,1.707,0,0,1,24,10.2Zm0,36a1.614,1.614,0,0,1-1.225-.5,1.681,1.681,0,0,1-.475-1.2v-5A1.707,1.707,0,0,1,24,37.8a1.614,1.614,0,0,1,1.225.5,1.681,1.681,0,0,1,.475,1.2v5A1.707,1.707,0,0,1,24,46.2ZM11.85,14.25,9,11.45a1.583,1.583,0,0,1-.475-1.225A1.866,1.866,0,0,1,9,9a1.637,1.637,0,0,1,1.2-.5,1.807,1.807,0,0,1,1.25.5l2.8,2.85a1.732,1.732,0,0,1,.45,1.2,1.557,1.557,0,0,1-.45,1.15,1.689,1.689,0,0,1-2.4.05ZM36.55,39l-2.8-2.85a1.825,1.825,0,0,1,0-2.4,1.69,1.69,0,0,1,2.4,0L39,36.55a1.583,1.583,0,0,1,.475,1.225A1.866,1.866,0,0,1,39,39a1.637,1.637,0,0,1-1.2.5A1.807,1.807,0,0,1,36.55,39Zm-2.8-24.75a1.69,1.69,0,0,1,0-2.4L36.55,9a1.583,1.583,0,0,1,1.225-.475A1.866,1.866,0,0,1,39,9a1.637,1.637,0,0,1,.5,1.2,1.807,1.807,0,0,1-.5,1.25l-2.85,2.8A1.557,1.557,0,0,1,35,14.7,1.92,1.92,0,0,1,33.75,14.25ZM9,39a1.637,1.637,0,0,1-.5-1.2A1.807,1.807,0,0,1,9,36.55l2.85-2.8a1.631,1.631,0,0,1,2.35,0,1.566,1.566,0,0,1,.55,1.2,1.637,1.637,0,0,1-.5,1.2L11.45,39a1.583,1.583,0,0,1-1.225.475A1.866,1.866,0,0,1,9,39Z" transform="translate(-1.8 -1.8)" fill="#fff"/>
</svg>
