<svg xmlns="http://www.w3.org/2000/svg" width="198" height="77" viewBox="0 0 198 77">
  <g id="LogIn" transform="translate(-1605 -29)">
    <g id="Rectangle_4" data-name="Rectangle 4" transform="translate(1605 29)" stroke="#707070" stroke-width="1">
      <path d="M18,0H180a18,18,0,0,1,18,18V45a16,16,0,0,1-16,16H18A18,18,0,0,1,0,43V18A18,18,0,0,1,18,0Z" stroke="none"/>
      <path d="M18,.5H180A17.5,17.5,0,0,1,197.5,18V45A15.5,15.5,0,0,1,182,60.5H18A17.5,17.5,0,0,1,.5,43V18A17.5,17.5,0,0,1,18,.5Z" fill="none"/>
    </g>
    <text id="Log_In_" data-name="Log In
" transform="translate(1672 67)" fill="#fff" font-size="25" font-family="SegoeUI-Bold, Segoe UI" font-weight="700"><tspan x="0" y="0">Log In</tspan><tspan font-family="UTSans-Bold, UT Sans"><tspan x="0" y="33"></tspan></tspan></text>
  </g>
</svg>
